<svg xmlns="http://www.w3.org/2000/svg" width="93" height="93" viewBox="0 0 93 93">
  <g id="Grupo_1111952" data-name="Grupo 1111952" transform="translate(-1017 -5293)">
    <g id="Grupo_1111950" data-name="Grupo 1111950" transform="translate(0 2929)">
      <g id="Grupo_1111907" data-name="Grupo 1111907" transform="translate(-15.051 568)">
        <circle id="Elipse_13241" data-name="Elipse 13241" cx="46.5" cy="46.5" r="46.5" transform="translate(1032.051 1796)" fill="#fff"/>
      </g>
    </g>
    <g id="Linear" transform="translate(1036 5312)">
      <path id="Trazado_902360" data-name="Trazado 902360" d="M47,17h8.666V56H47Z" transform="translate(-6.134 -2.134)" fill="#a6a1ce"/>
      <path id="Trazado_902361" data-name="Trazado 902361" d="M50.666,9,42,17.666H59.333Z" transform="translate(-5.467 -1.067)" fill="#a6a1ce"/>
      <path id="Trazado_902362" data-name="Trazado 902362" d="M7,17h8.666V56H7Z" transform="translate(-0.8 -2.134)" fill="#a6a1ce"/>
      <path id="Trazado_902363" data-name="Trazado 902363" d="M10.666,9,2,17.666H19.333Z" transform="translate(-0.133 -1.067)" fill="#a6a1ce"/>
      <path id="Trazado_902364" data-name="Trazado 902364" d="M27,10h8.666V55.066H27Z" transform="translate(-3.467 -1.2)" fill="#a6a1ce"/>
      <path id="Trazado_902365" data-name="Trazado 902365" d="M30.666,2,22,10.666H39.333Z" transform="translate(-2.8 -0.133)" fill="#a6a1ce"/>
      <circle id="Elipse_13245" data-name="Elipse 13245" cx="13" cy="13" r="13" transform="translate(27.866 27.866)" fill="#88d392"/>
      <path id="Trazado_902366" data-name="Trazado 902366" d="M2,30H21.066v3.467H2Z" transform="translate(-0.133 -3.867)" fill="#fcc96d"/>
      <path id="Trazado_902367" data-name="Trazado 902367" d="M2,34H21.066v3.467H2Z" transform="translate(-0.133 -4.401)" fill="#d2a75b"/>
      <path id="Trazado_902368" data-name="Trazado 902368" d="M2,38H21.066v3.467H2Z" transform="translate(-0.133 -4.934)" fill="#fcc96d"/>
      <path id="Trazado_902369" data-name="Trazado 902369" d="M2,42H21.066v3.467H2Z" transform="translate(-0.133 -5.467)" fill="#d2a75b"/>
      <path id="Trazado_902370" data-name="Trazado 902370" d="M2,46H21.066v3.467H2Z" transform="translate(-0.133 -6.001)" fill="#fcc96d"/>
      <path id="Trazado_902371" data-name="Trazado 902371" d="M2,50H21.066v3.467H2Z" transform="translate(-0.133 -6.534)" fill="#d2a75b"/>
      <path id="Trazado_902372" data-name="Trazado 902372" d="M2,54H21.066v3.467H2Z" transform="translate(-0.133 -7.068)" fill="#fcc96d"/>
      <path id="Trazado_902373" data-name="Trazado 902373" d="M2,58H21.066v3.467H2Z" transform="translate(-0.133 -7.601)" fill="#d2a75b"/>
      <path id="Trazado_902374" data-name="Trazado 902374" d="M14,30h8.666V57.733H14Z" transform="translate(-1.734 -3.867)" fill="#231f20" opacity="0.15"/>
      <circle id="Elipse_13246" data-name="Elipse 13246" cx="9.533" cy="9.533" r="9.533" transform="translate(14.866 20.066)" fill="#fcc96d"/>
      <path id="Trazado_902375" data-name="Trazado 902375" d="M17,46H36.066v3.467H17Z" transform="translate(-2.134 -6.001)" fill="#d2a75b"/>
      <path id="Trazado_902376" data-name="Trazado 902376" d="M17,50H36.066v3.467H17Z" transform="translate(-2.134 -6.534)" fill="#fcc96d"/>
      <path id="Trazado_902377" data-name="Trazado 902377" d="M17,54H36.066v3.467H17Z" transform="translate(-2.134 -7.068)" fill="#d2a75b"/>
      <path id="Trazado_902378" data-name="Trazado 902378" d="M17,58H36.066v3.467H17Z" transform="translate(-2.134 -7.601)" fill="#fcc96d"/>
      <g id="Grupo_1111951" data-name="Grupo 1111951" transform="translate(1 1)">
        <path id="Trazado_902379" data-name="Trazado 902379" d="M33,46h5.2V59.866H33Z" transform="translate(-5.267 -7.001)" fill="#231f20" opacity="0.15"/>
        <path id="Trazado_902380" data-name="Trazado 902380" d="M54.866,32.986A.867.867,0,0,1,54,32.119V17.533a.867.867,0,0,1,.867-.867h2.241l-6.574-6.574-6.574,6.574H46.2a.867.867,0,0,1,.867.867V28.8a.867.867,0,1,1-1.733,0V18.4H41.867a.867.867,0,0,1-.613-1.479L49.92,8.254a.867.867,0,0,1,1.225,0l8.666,8.666A.867.867,0,0,1,59.2,18.4H55.733V32.119A.867.867,0,0,1,54.866,32.986Z" transform="translate(-6.334 -1.934)" fill="#231f20"/>
        <path id="Trazado_902381" data-name="Trazado 902381" d="M55.533,62.223H46.867a.867.867,0,1,1,0-1.733h7.8V58.037a.867.867,0,1,1,1.733,0v3.319A.867.867,0,0,1,55.533,62.223Z" transform="translate(-7.001 -8.491)" fill="#231f20"/>
        <path id="Trazado_902382" data-name="Trazado 902382" d="M14.866,27.933A.867.867,0,0,1,14,27.066V17.533a.867.867,0,0,1,.867-.867h2.241l-6.574-6.574L3.959,16.667H6.2a.867.867,0,0,1,.867.867v9.533a.867.867,0,0,1-1.733,0V18.4H1.867a.867.867,0,0,1-.613-1.479L9.92,8.254a.867.867,0,0,1,1.225,0l8.666,8.666A.867.867,0,0,1,19.2,18.4H15.733v8.666A.867.867,0,0,1,14.866,27.933Z" transform="translate(-1 -1.934)" fill="#231f20"/>
        <path id="Trazado_902383" data-name="Trazado 902383" d="M34.866,24.989A.867.867,0,0,1,34,24.122V10.533a.867.867,0,0,1,.867-.867h2.241L30.533,3.092,23.959,9.667H26.2a.867.867,0,0,1,.867.867V20.11a.867.867,0,1,1-1.733,0V11.4H21.867a.867.867,0,0,1-.613-1.479L29.92,1.254a.867.867,0,0,1,1.225,0L39.812,9.92A.867.867,0,0,1,39.2,11.4H35.733V24.122a.867.867,0,0,1-.867.867Z" transform="translate(-3.667 -1)" fill="#231f20"/>
        <path id="Trazado_902384" data-name="Trazado 902384" d="M45.8,58.733a13.75,13.75,0,0,1-7.4-2.147.867.867,0,1,1,.931-1.462,12.131,12.131,0,1,0-.01-20.514.867.867,0,1,1-.927-1.464A13.866,13.866,0,1,1,45.8,58.733Z" transform="translate(-5.93 -5.001)" fill="#231f20"/>
        <path id="Trazado_902385" data-name="Trazado 902385" d="M14.866,34.2h-13A.867.867,0,0,1,1,33.333V29.867A.867.867,0,0,1,1.867,29h13.65a.867.867,0,0,1,0,1.733H2.733v1.733H14.866a.867.867,0,1,1,0,1.733Z" transform="translate(-1 -4.734)" fill="#231f20"/>
        <path id="Trazado_902386" data-name="Trazado 902386" d="M15.516,38.2H1.867A.867.867,0,0,1,1,37.333V33.867A.867.867,0,0,1,1.867,33h13a.867.867,0,0,1,0,1.733H2.733v1.733H15.516a.867.867,0,1,1,0,1.733Z" transform="translate(-1 -5.267)" fill="#231f20"/>
        <path id="Trazado_902387" data-name="Trazado 902387" d="M17.856,42.2H1.867A.867.867,0,0,1,1,41.333V37.867A.867.867,0,0,1,1.867,37h13.65a.867.867,0,1,1,0,1.733H2.733v1.733H17.856a.867.867,0,0,1,0,1.733Z" transform="translate(-1 -5.801)" fill="#231f20"/>
        <path id="Trazado_902388" data-name="Trazado 902388" d="M20.933,46.2H1.867A.867.867,0,0,1,1,45.333V41.867A.867.867,0,0,1,1.867,41h15.99a.867.867,0,0,1,0,1.733H2.733v1.733H20.066v-.65a.867.867,0,1,1,1.733,0v1.517A.867.867,0,0,1,20.933,46.2Z" transform="translate(-1 -6.334)" fill="#231f20"/>
        <path id="Trazado_902389" data-name="Trazado 902389" d="M14.866,50.2h-13A.867.867,0,0,1,1,49.333V45.867A.867.867,0,0,1,1.867,45h13a.867.867,0,0,1,.867.867v3.467A.867.867,0,0,1,14.866,50.2ZM2.733,48.467H14V46.733H2.733Z" transform="translate(-1 -6.868)" fill="#231f20"/>
        <path id="Trazado_902390" data-name="Trazado 902390" d="M14.866,54.2h-13A.867.867,0,0,1,1,53.333V49.867A.867.867,0,0,1,1.867,49h13a.867.867,0,0,1,.867.867v3.467A.867.867,0,0,1,14.866,54.2ZM2.733,52.467H14V50.733H2.733Z" transform="translate(-1 -7.401)" fill="#231f20"/>
        <path id="Trazado_902391" data-name="Trazado 902391" d="M14.866,58.2h-13A.867.867,0,0,1,1,57.333V53.867A.867.867,0,0,1,1.867,53h13a.867.867,0,0,1,.867.867v3.467A.867.867,0,0,1,14.866,58.2ZM2.733,56.467H14V54.733H2.733Z" transform="translate(-1 -7.934)" fill="#231f20"/>
        <path id="Trazado_902392" data-name="Trazado 902392" d="M14.866,62.2h-13A.867.867,0,0,1,1,61.333V57.867A.867.867,0,0,1,1.867,57h13a.867.867,0,0,1,.867.867v3.467A.867.867,0,0,1,14.866,62.2ZM2.733,60.467H14V58.733H2.733Z" transform="translate(-1 -8.468)" fill="#231f20"/>
        <path id="Trazado_902393" data-name="Trazado 902393" d="M26.4,42.8A10.4,10.4,0,1,1,36.8,32.4,10.4,10.4,0,0,1,26.4,42.8Zm0-19.066A8.666,8.666,0,1,0,35.066,32.4,8.666,8.666,0,0,0,26.4,23.733Z" transform="translate(-3 -3.801)" fill="#231f20"/>
        <path id="Trazado_902394" data-name="Trazado 902394" d="M35.933,50.2H16.867A.867.867,0,0,1,16,49.333V45.867A.867.867,0,0,1,16.867,45H35.933a.867.867,0,0,1,.867.867v3.467A.867.867,0,0,1,35.933,50.2Zm-18.2-1.733H35.066V46.733H17.733Z" transform="translate(-3 -6.868)" fill="#231f20"/>
        <path id="Trazado_902395" data-name="Trazado 902395" d="M35.933,54.2H16.867A.867.867,0,0,1,16,53.333V49.867A.867.867,0,0,1,16.867,49H35.933a.867.867,0,0,1,.867.867v3.467A.867.867,0,0,1,35.933,54.2Zm-18.2-1.733H35.066V50.733H17.733Z" transform="translate(-3 -7.401)" fill="#231f20"/>
        <path id="Trazado_902396" data-name="Trazado 902396" d="M35.933,58.2H16.867A.867.867,0,0,1,16,57.333V53.867A.867.867,0,0,1,16.867,53H35.933a.867.867,0,0,1,.867.867v3.467A.867.867,0,0,1,35.933,58.2Zm-18.2-1.733H35.066V54.733H17.733Z" transform="translate(-3 -7.934)" fill="#231f20"/>
        <path id="Trazado_902397" data-name="Trazado 902397" d="M35.933,62.2H16.867A.867.867,0,0,1,16,61.333V57.867A.867.867,0,0,1,16.867,57H35.933a.867.867,0,0,1,.867.867v3.467A.867.867,0,0,1,35.933,62.2Zm-18.2-1.733H35.066V58.733H17.733Z" transform="translate(-3 -8.468)" fill="#231f20"/>
        <path id="Trazado_902398" data-name="Trazado 902398" d="M41.867,51.4a.867.867,0,0,1-.613-1.479l8.666-8.666a.867.867,0,1,1,1.226,1.226l-8.667,8.666A.867.867,0,0,1,41.867,51.4Z" transform="translate(-6.334 -6.334)" fill="#231f20"/>
        <path id="Trazado_902399" data-name="Trazado 902399" d="M42.6,45.2a2.6,2.6,0,1,1,2.6-2.6A2.6,2.6,0,0,1,42.6,45.2Zm0-3.467a.867.867,0,1,0,.867.867A.867.867,0,0,0,42.6,41.733Z" transform="translate(-6.201 -6.201)" fill="#231f20"/>
        <path id="Trazado_902400" data-name="Trazado 902400" d="M50.6,53.2a2.6,2.6,0,1,1,2.6-2.6A2.6,2.6,0,0,1,50.6,53.2Zm0-3.467a.867.867,0,1,0,.867.867A.867.867,0,0,0,50.6,49.733Z" transform="translate(-7.268 -7.268)" fill="#231f20"/>
        <path id="Trazado_902401" data-name="Trazado 902401" d="M27.714,38.4h-.9a2.8,2.8,0,0,1-2.649-1.812A.867.867,0,1,1,25.8,36a1.059,1.059,0,0,0,1.017.665h.9A1.409,1.409,0,0,0,29.2,35.489a1.141,1.141,0,0,0-.26-.77,1.356,1.356,0,0,0-.732-.453l-1.881-.444A2.974,2.974,0,0,1,24,30.953a2.881,2.881,0,0,1,.913-2.1A3.092,3.092,0,0,1,27.057,28h1.06a2.8,2.8,0,0,1,2.649,1.812.867.867,0,1,1-1.632.586,1.059,1.059,0,0,0-1.017-.665h-1.06a1.368,1.368,0,0,0-.953.374,1.163,1.163,0,0,0-.374.846,1.247,1.247,0,0,0,.993,1.182l1.881.444a3.092,3.092,0,0,1,1.668,1.04,2.86,2.86,0,0,1,.661,1.933,3.128,3.128,0,0,1-3.22,2.848Z" transform="translate(-4.067 -4.601)" fill="#231f20"/>
        <path id="Trazado_902402" data-name="Trazado 902402" d="M27.867,29.467A.867.867,0,0,1,27,28.6V26.867a.867.867,0,0,1,1.733,0V28.6A.867.867,0,0,1,27.867,29.467Z" transform="translate(-4.467 -4.334)" fill="#231f20"/>
        <path id="Trazado_902403" data-name="Trazado 902403" d="M27.867,41.467A.867.867,0,0,1,27,40.6V38.867a.867.867,0,0,1,1.733,0V40.6A.867.867,0,0,1,27.867,41.467Z" transform="translate(-4.467 -5.934)" fill="#231f20"/>
      </g>
    </g>
  </g>
</svg>
