<svg xmlns="http://www.w3.org/2000/svg" xmlns:xlink="http://www.w3.org/1999/xlink" width="137.71" height="153.454" viewBox="0 0 137.71 153.454">
  <defs>
    <filter id="Trazado_1241631" x="0" y="0" width="137.71" height="153.454" filterUnits="userSpaceOnUse">
      <feOffset dy="3" input="SourceAlpha"/>
      <feGaussianBlur stdDeviation="3" result="blur"/>
      <feFlood flood-opacity="0.161"/>
      <feComposite operator="in" in2="blur"/>
      <feComposite in="SourceGraphic"/>
    </filter>
  </defs>
  <g id="Grupo_1200748" data-name="Grupo 1200748" transform="translate(10071.913 14175.448)">
    <g transform="matrix(1, 0, 0, 1, -10071.91, -14175.45)" filter="url(#Trazado_1241631)">
      <path id="Trazado_1241631-2" data-name="Trazado 1241631" d="M1876.555,798.565,1806.9,825.218a7.081,7.081,0,0,0-3.88,9.223l36.129,94.42a7.079,7.079,0,0,0,9.046,4.276l69.658-26.653a7.08,7.08,0,0,0,3.88-9.223l-36.129-94.42A7.079,7.079,0,0,0,1876.555,798.565Z" transform="translate(-1793.52 -792.12)" fill="#00c5c7"/>
    </g>
    <path id="Trazado_1241632" data-name="Trazado 1241632" d="M1816.52,871.5c-1.492,2.675,22.979,84.628,35.349,91.315,14.077,7.605,66.141-23.809,63.73-30.112-8.806-23.017-49.649,12.653-59.736-3.531S1821.45,862.656,1816.52,871.5Z" transform="translate(-11873.497 -15009.436)" fill="#008c8e"/>
    <path id="Trazado_1241633" data-name="Trazado 1241633" d="M1973,1035.934a7.02,7.02,0,0,1-4.2,8.161l-69.658,26.653a7.016,7.016,0,0,1-8.574-3.274,4.209,4.209,0,0,0,3.076.029l77.082-29.5a4.213,4.213,0,0,0,2.271-2.077Z" transform="translate(-11916.384 -15105.184)" fill="#006668"/>
    <path id="Trazado_1241634" data-name="Trazado 1241634" d="M4.057,0H68.833A4.059,4.059,0,0,1,72.89,4.057V9.931a4.059,4.059,0,0,1-4.057,4.057H4.057A4.059,4.059,0,0,1,0,9.931V4.057A4.059,4.059,0,0,1,4.057,0Z" transform="translate(-10054.281 -14133.633) rotate(-20.94)" fill="#ffd146"/>
    <g id="Grupo_1200510" data-name="Grupo 1200510" transform="translate(-10045.403 -14131.19)">
      <g id="Grupo_1200509" data-name="Grupo 1200509">
        <path id="Trazado_1241635" data-name="Trazado 1241635" d="M1844.078,926.216c-.13-2.031,9.627-4.866,11.073-4.517,1.993.484,5.473,11.587,4.963,12.307s-10.929,5.431-11.751,3.889S1844.3,929.566,1844.078,926.216Z" transform="translate(-1844.077 -907.876)" fill="#edffff"/>
        <path id="Trazado_1241636" data-name="Trazado 1241636" d="M1887.608,909.846c-.13-2.031,9.627-4.866,11.072-4.517,1.993.485,5.473,11.587,4.964,12.307s-10.929,5.431-11.751,3.889S1887.828,913.2,1887.608,909.846Z" transform="translate(-1869.267 -898.403)" fill="#edffff"/>
        <path id="Trazado_1241637" data-name="Trazado 1241637" d="M1931.148,893.476c-.131-2.031,9.627-4.866,11.073-4.517,1.993.484,5.473,11.586,4.963,12.307s-10.929,5.431-11.751,3.889S1931.367,896.826,1931.148,893.476Z" transform="translate(-1894.462 -888.93)" fill="#edffff"/>
        <path id="Trazado_1241638" data-name="Trazado 1241638" d="M1859.328,966.8c-.131-2.031,9.628-4.866,11.073-4.517,1.993.484,5.473,11.587,4.963,12.307s-10.929,5.431-11.751,3.889S1859.547,970.146,1859.328,966.8Z" transform="translate(-1852.902 -931.358)" fill="#edffff"/>
        <path id="Trazado_1241639" data-name="Trazado 1241639" d="M1902.868,950.426c-.131-2.031,9.627-4.866,11.073-4.517,1.993.485,5.473,11.587,4.963,12.307s-10.929,5.431-11.751,3.889S1903.087,953.776,1902.868,950.426Z" transform="translate(-1878.097 -921.885)" fill="#edffff"/>
        <path id="Trazado_1241640" data-name="Trazado 1241640" d="M1946.408,934.056c-.131-2.031,9.627-4.867,11.073-4.517,1.993.485,5.473,11.587,4.963,12.307s-10.929,5.431-11.751,3.889S1946.627,937.406,1946.408,934.056Z" transform="translate(-1903.292 -912.412)" fill="#edffff"/>
        <path id="Trazado_1241641" data-name="Trazado 1241641" d="M1874.588,1007.366c-.13-2.031,9.627-4.866,11.073-4.517,1.993.485,5.473,11.587,4.963,12.307s-10.929,5.431-11.751,3.889S1874.807,1010.716,1874.588,1007.366Z" transform="translate(-1861.732 -954.835)" fill="#edffff"/>
        <path id="Trazado_1241642" data-name="Trazado 1241642" d="M1918.128,991c-.131-2.031,9.627-4.866,11.073-4.517,1.993.485,5.473,11.587,4.963,12.307s-10.929,5.431-11.751,3.889-4.066-8.33-4.285-11.679Z" transform="translate(-1886.927 -945.362)" fill="#edffff"/>
        <path id="Trazado_1241643" data-name="Trazado 1241643" d="M1961.658,974.626c-.131-2.031,9.627-4.866,11.073-4.517,1.993.484,5.473,11.587,4.963,12.307s-10.929,5.431-11.751,3.889-4.066-8.33-4.285-11.679Z" transform="translate(-1912.117 -935.889)" fill="#edffff"/>
        <path id="Trazado_1241644" data-name="Trazado 1241644" d="M1889.848,1047.946c-.131-2.031,9.627-4.866,11.072-4.517,1.993.485,5.473,11.587,4.963,12.307s-10.929,5.431-11.751,3.889S1890.067,1051.3,1889.848,1047.946Z" transform="translate(-1870.563 -978.317)" fill="#edffff"/>
      </g>
      <path id="Trazado_1241645" data-name="Trazado 1241645" d="M1933.378,1031.576c-.131-2.031,9.627-4.866,11.073-4.517,1.993.484,5.473,11.587,4.963,12.307s-10.929,5.431-11.751,3.889S1933.6,1034.926,1933.378,1031.576Z" transform="translate(-1895.752 -968.844)" fill="#edffff"/>
    </g>
    <path id="Trazado_1241646" data-name="Trazado 1241646" d="M1976.918,1015.206c-.131-2.031,9.627-4.866,11.072-4.517,1.993.485,5.473,11.587,4.963,12.307s-10.929,5.431-11.751,3.889S1977.137,1018.556,1976.918,1015.206Z" transform="translate(-11966.352 -15090.561)" fill="#b4486b"/>
    <g id="Grupo_1200511" data-name="Grupo 1200511" transform="translate(-9990.154 -14138.171)">
      <path id="Trazado_1241647" data-name="Trazado 1241647" d="M1975.208,876.906c-.131-2.031,9.627-4.866,11.072-4.517,1.993.484,5.473,11.587,4.964,12.307s-10.929,5.431-11.751,3.889S1975.427,880.256,1975.208,876.906Z" transform="translate(-1975.207 -872.36)" fill="#003f62"/>
      <path id="Trazado_1241648" data-name="Trazado 1241648" d="M1989.938,917.686c-.131-2.031,9.627-4.866,11.073-4.517,1.993.485,5.473,11.587,4.963,12.307s-10.929,5.431-11.751,3.889S1990.157,921.036,1989.938,917.686Z" transform="translate(-1983.731 -895.958)" fill="#003f62"/>
      <path id="Trazado_1241649" data-name="Trazado 1241649" d="M2005.2,958.256c-.13-2.031,9.627-4.866,11.073-4.517,1.993.485,5.473,11.587,4.963,12.307s-10.929,5.431-11.751,3.889-4.066-8.33-4.285-11.679Z" transform="translate(-1992.561 -919.435)" fill="#003f62"/>
      <path id="Trazado_1241650" data-name="Trazado 1241650" d="M2020.458,998.836c-.131-2.031,9.627-4.866,11.073-4.517,1.993.485,5.473,11.587,4.963,12.307s-10.929,5.431-11.751,3.889S2020.677,1002.186,2020.458,998.836Z" transform="translate(-2001.391 -942.917)" fill="#003f62"/>
    </g>
    <path id="Trazado_1241651" data-name="Trazado 1241651" d="M1988.06,888.434l4.706-1.769.413,1.1-4.706,1.77Zm2.439,1.589a.834.834,0,0,1-.051-.316.778.778,0,0,1,.072-.295.823.823,0,0,1,.173-.249.669.669,0,0,1,.265-.169.723.723,0,0,1,.312-.046.823.823,0,0,1,.291.076.838.838,0,0,1,.249.177.714.714,0,0,1,.169.27.835.835,0,0,1,.051.316.778.778,0,0,1-.072.295.829.829,0,0,1-.173.249.67.67,0,0,1-.266.168.72.72,0,0,1-.312.046.825.825,0,0,1-.291-.076.844.844,0,0,1-.249-.177A.713.713,0,0,1,1990.5,890.022Zm-1.239-3.291a.824.824,0,0,1-.051-.316.775.775,0,0,1,.072-.295.827.827,0,0,1,.173-.249.667.667,0,0,1,.265-.169.723.723,0,0,1,.312-.046.822.822,0,0,1,.291.076.838.838,0,0,1,.249.177.714.714,0,0,1,.169.27.825.825,0,0,1,.051.316.776.776,0,0,1-.072.295.826.826,0,0,1-.173.249.668.668,0,0,1-.266.169.72.72,0,0,1-.312.046.822.822,0,0,1-.291-.076.834.834,0,0,1-.249-.177A.717.717,0,0,1,1989.261,886.732Z" transform="translate(-11972.799 -15018.223)" fill="#fff"/>
    <path id="Trazado_1241652" data-name="Trazado 1241652" d="M2003.123,926.511l2.094.952.906-2.073,1.045.463-.9,2.128,2.111.927-.485,1.108-2.09-.965-.94,2.115-1.045-.464.9-2.14-2.094-.923.489-1.129Z" transform="translate(-11981.23 -15041.219)" fill="#fff"/>
    <path id="Trazado_1241653" data-name="Trazado 1241653" d="M2023.943,971.965l-2.111.8-.392-1.045,2.111-.8Z" transform="translate(-11992.116 -15067.564)" fill="#fff"/>
    <path id="Trazado_1241654" data-name="Trazado 1241654" d="M2032.22,1009.258l1.812-.682-.691-1.837,1.083-.409.691,1.837,1.812-.683.413,1.1-1.812.683.691,1.837-1.083.409-.691-1.837-1.812.682Z" transform="translate(-11998.353 -15088.056)" fill="#fff"/>
    <path id="Trazado_1241655" data-name="Trazado 1241655" d="M1988.508,1026.922l4.706-1.77.413,1.1-4.707,1.77Zm-.628-1.672,4.706-1.77.413,1.1-4.706,1.77Z" transform="translate(-11972.695 -15097.98)" fill="#fff"/>
    <path id="Trazado_1241656" data-name="Trazado 1241656" d="M1857.138,933.766l-.809,1.546-1.049-.577,1.344-2.444,1.2-.451,2.317,6.168-1.234.464-1.769-4.7Z" transform="translate(-11895.963 -15044.949)" fill="#003f62"/>
    <path id="Trazado_1241657" data-name="Trazado 1241657" d="M1900.912,921.2l1.555-3.038a4.429,4.429,0,0,0,.219-.51.791.791,0,0,0,0-.556.637.637,0,0,0-.409-.409.863.863,0,0,0-.59.017.75.75,0,0,0-.476.438.99.99,0,0,0-.017.645l-1.323.388a2.259,2.259,0,0,1-.114-.906,1.841,1.841,0,0,1,.236-.759,2.055,2.055,0,0,1,.531-.6,3.107,3.107,0,0,1,.784-.43,2.607,2.607,0,0,1,.817-.173,1.888,1.888,0,0,1,.758.114,1.734,1.734,0,0,1,.636.421,2.234,2.234,0,0,1,.455.754,2.328,2.328,0,0,1,.143.56,2.169,2.169,0,0,1,0,.5,2.062,2.062,0,0,1-.118.455,4.089,4.089,0,0,1-.2.442l-1.239,2.3,2.7-1.015.434,1.15-4.243,1.6-.522-1.386Z" transform="translate(-11921.695 -15035.381)" fill="#003f62"/>
    <path id="Trazado_1241658" data-name="Trazado 1241658" d="M1943.438,902.446l.422-.16a2.111,2.111,0,0,0,.341-.16,1.011,1.011,0,0,0,.274-.219.6.6,0,0,0,.147-.295.671.671,0,0,0-.046-.383.626.626,0,0,0-.392-.379.887.887,0,0,0-.607.017.787.787,0,0,0-.434.354.824.824,0,0,0-.105.506l-1.529.236a2.157,2.157,0,0,1,.051-.8,1.861,1.861,0,0,1,.316-.641,2.227,2.227,0,0,1,.535-.493,3.345,3.345,0,0,1,.7-.358,3.311,3.311,0,0,1,.813-.194,2.055,2.055,0,0,1,.775.067,1.678,1.678,0,0,1,.653.367,1.733,1.733,0,0,1,.455.7,1.528,1.528,0,0,1,.063.982,1.31,1.31,0,0,1-.594.763l.009.025a1.273,1.273,0,0,1,.548-.017,1.341,1.341,0,0,1,.476.19,1.518,1.518,0,0,1,.388.35,1.758,1.758,0,0,1,.27.485,1.93,1.93,0,0,1,.131.876,1.819,1.819,0,0,1-.253.758,2.19,2.19,0,0,1-.565.607,3.124,3.124,0,0,1-.8.43,2.654,2.654,0,0,1-1.546.143,1.985,1.985,0,0,1-1.23-.919l1.235-.834a1.019,1.019,0,0,0,.476.417.965.965,0,0,0,.7-.042.785.785,0,0,0,.527-1.1.737.737,0,0,0-.261-.367.715.715,0,0,0-.358-.11,1.375,1.375,0,0,0-.417.063c-.148.046-.291.093-.434.148l-.3.114-.426-1.133Z" transform="translate(-11945.852 -15026.216)" fill="#003f62"/>
    <path id="Trazado_1241659" data-name="Trazado 1241659" d="M1874.817,977.653l-2.654,1-.413-1.1,1.041-4.765,1.407-.531,1.441,3.834.779-.295.413,1.1-.779.295.463,1.239-1.234.463-.463-1.239Zm-1.214-3.219-.017.008-.548,2.633,1.365-.514-.8-2.123Z" transform="translate(-11905.494 -15068.341)" fill="#003f62"/>
    <path id="Trazado_1241660" data-name="Trazado 1241660" d="M1918.51,956.3l-2.414.906.333.961a1.837,1.837,0,0,1,.514-.274,2.625,2.625,0,0,1,.9-.181,2.032,2.032,0,0,1,.817.156,1.963,1.963,0,0,1,.674.48,2.632,2.632,0,0,1,.649,1.791,2.188,2.188,0,0,1-.223.876,2.223,2.223,0,0,1-.573.708,3.015,3.015,0,0,1-.868.5,2.33,2.33,0,0,1-1.47.105,2.123,2.123,0,0,1-1.176-.91l1.23-.822a.949.949,0,0,0,.476.434.852.852,0,0,0,.636,0,.937.937,0,0,0,.56-.51,1.1,1.1,0,0,0-.312-1.209.964.964,0,0,0-.442-.19,1.386,1.386,0,0,0-.51.008,3,3,0,0,0-.514.143,3.616,3.616,0,0,0-.615.3,4.46,4.46,0,0,0-.56.4l-1.214-3.43,3.674-1.382.434,1.15Z" transform="translate(-11930.18 -15058.444)" fill="#003f62"/>
    <path id="Trazado_1241661" data-name="Trazado 1241661" d="M1960.254,942.514c.063-.042.127-.084.19-.122a1.147,1.147,0,0,1,.207-.1,2.053,2.053,0,0,1,.838-.139,1.952,1.952,0,0,1,.763.2,2.114,2.114,0,0,1,.628.493,2.388,2.388,0,0,1,.434.737,2.239,2.239,0,0,1,.152.931,2.151,2.151,0,0,1-.232.847,2.339,2.339,0,0,1-.561.7,2.886,2.886,0,0,1-1.782.67,2.349,2.349,0,0,1-.88-.16,2.151,2.151,0,0,1-1.235-1.285,2.987,2.987,0,0,1-.168-.628,3.381,3.381,0,0,1-.038-.577,4,4,0,0,1,.055-.552c.034-.181.068-.371.105-.56l.539-2.608,1.572-.59-.6,2.739Zm1.753,1.508a1.011,1.011,0,0,0-.531-.59,1.128,1.128,0,0,0-1.42.531,1.092,1.092,0,0,0,.522,1.382,1.128,1.128,0,0,0,1.42-.531A1.012,1.012,0,0,0,1962.007,944.023Z" transform="translate(-11955.733 -15049.545)" fill="#003f62"/>
    <path id="Trazado_1241662" data-name="Trazado 1241662" d="M1886.955,1013.024l-3,1.129-.451-1.2,4.449-1.673.434,1.15-.544,5.932-1.5.565.624-5.9Z" transform="translate(-11912.293 -15090.92)" fill="#003f62"/>
    <path id="Trazado_1241663" data-name="Trazado 1241663" d="M1929.912,998.394a1.8,1.8,0,0,1-.122-.8,1.557,1.557,0,0,1,.24-.7,2.005,2.005,0,0,1,.527-.56,3.026,3.026,0,0,1,.75-.4,3.192,3.192,0,0,1,.83-.194,1.973,1.973,0,0,1,.763.076,1.667,1.667,0,0,1,.636.367,1.716,1.716,0,0,1,.442.683,1.5,1.5,0,0,1,.055.965,1.572,1.572,0,0,1-.569.792l.008.017a1.618,1.618,0,0,1,1.045.219,1.656,1.656,0,0,1,.653.851,1.8,1.8,0,0,1,.118.851,1.719,1.719,0,0,1-.261.737,2.32,2.32,0,0,1-.556.594,3.106,3.106,0,0,1-1.614.607,2.226,2.226,0,0,1-.809-.08,1.772,1.772,0,0,1-.682-.383,1.822,1.822,0,0,1-.472-.716,1.668,1.668,0,0,1-.072-1.07,1.6,1.6,0,0,1,.641-.851l-.009-.017a1.541,1.541,0,0,1-.948-.219,1.484,1.484,0,0,1-.594-.758Zm2.2,2.254a.791.791,0,0,0,.438.463.906.906,0,0,0,.7,0,.916.916,0,0,0,.535-.459.8.8,0,0,0,.025-.636.814.814,0,0,0-.443-.472.9.9,0,0,0-.7,0,.916.916,0,0,0-.535.459A.8.8,0,0,0,1932.116,1000.648Zm-.847-2.558a.7.7,0,0,0,.388.409.817.817,0,0,0,.615,0,.8.8,0,0,0,.468-.4.7.7,0,0,0,.021-.565.685.685,0,0,0-.388-.4.817.817,0,0,0-.615,0,.8.8,0,0,0-.468.4.676.676,0,0,0-.025.556Z" transform="translate(-11939.076 -15081.923)" fill="#003f62"/>
    <path id="Trazado_1241664" data-name="Trazado 1241664" d="M1975.106,984.082c-.063.042-.126.084-.19.122a1.168,1.168,0,0,1-.206.1,2.055,2.055,0,0,1-.839.139,1.953,1.953,0,0,1-.763-.2,2.111,2.111,0,0,1-.628-.493,2.382,2.382,0,0,1-.434-.737,2.306,2.306,0,0,1-.152-.931,2.151,2.151,0,0,1,.232-.847,2.318,2.318,0,0,1,.556-.7,2.721,2.721,0,0,1,.834-.489,2.8,2.8,0,0,1,.948-.181,2.359,2.359,0,0,1,.885.16,2.151,2.151,0,0,1,1.235,1.285,2.97,2.97,0,0,1,.168.628,3.417,3.417,0,0,1,.038.577,4.058,4.058,0,0,1-.055.552c-.034.181-.067.371-.105.56l-.539,2.608-1.572.59.6-2.739Zm-1.753-1.508a1.011,1.011,0,0,0,.531.59,1.128,1.128,0,0,0,1.42-.531,1.092,1.092,0,0,0-.523-1.382,1.127,1.127,0,0,0-1.42.531A1.011,1.011,0,0,0,1973.353,982.573Z" transform="translate(-11963.443 -15072.738)" fill="#003f62"/>
    <path id="Trazado_1241665" data-name="Trazado 1241665" d="M1901.938,1060.175a6.782,6.782,0,0,1-.32-1.15,3.473,3.473,0,0,1-.034-1.159,2.3,2.3,0,0,1,.409-1.015,2.431,2.431,0,0,1,2.233-.839,2.228,2.228,0,0,1,.973.493,3.532,3.532,0,0,1,.737.9,7.219,7.219,0,0,1,.518,1.079,6.816,6.816,0,0,1,.32,1.15,3.473,3.473,0,0,1,.034,1.159,2.3,2.3,0,0,1-.409,1.015,2.431,2.431,0,0,1-2.233.839,2.225,2.225,0,0,1-.973-.493,3.448,3.448,0,0,1-.737-.9A7.212,7.212,0,0,1,1901.938,1060.175Zm1.285-.48c.063.164.143.354.24.577a3.156,3.156,0,0,0,.362.611,1.486,1.486,0,0,0,.489.421.84.84,0,0,0,1.087-.409,1.452,1.452,0,0,0,.093-.64,3.1,3.1,0,0,0-.131-.7c-.072-.232-.135-.43-.2-.59s-.143-.354-.24-.577a3.159,3.159,0,0,0-.362-.611,1.456,1.456,0,0,0-.493-.421.729.729,0,0,0-.624-.013.737.737,0,0,0-.464.421,1.451,1.451,0,0,0-.088.64,3.12,3.12,0,0,0,.13.7C1903.1,1059.337,1903.164,1059.534,1903.223,1059.695Z" transform="translate(-11922.738 -15116.78)" fill="#003f62"/>
    <path id="Trazado_1241666" data-name="Trazado 1241666" d="M1942.6,1041.522a1.785,1.785,0,0,1-.118-.72,1.866,1.866,0,0,1,.156-.683,1.771,1.771,0,0,1,.4-.573,1.807,1.807,0,0,1,1.323-.5,1.752,1.752,0,0,1,.674.169,1.928,1.928,0,0,1,.569.413,1.872,1.872,0,0,1,.5,1.34,1.837,1.837,0,0,1-.156.683,1.774,1.774,0,0,1-.4.573,1.806,1.806,0,0,1-1.323.5,1.749,1.749,0,0,1-.674-.168,1.93,1.93,0,0,1-.569-.413A1.8,1.8,0,0,1,1942.6,1041.522Zm2.507-.944a.868.868,0,0,0-.459-.5.867.867,0,0,0-1.159.438.918.918,0,0,0,.446,1.184.809.809,0,0,0,.67.025.828.828,0,0,0,.489-.463A.871.871,0,0,0,1945.112,1040.578Zm2.018-2.928.876.139-1.171,7.647-.792-.13,1.091-7.656Zm.893,5.165a1.778,1.778,0,0,1-.118-.72,1.839,1.839,0,0,1,.156-.682,1.776,1.776,0,0,1,.4-.573,1.808,1.808,0,0,1,1.323-.5,1.746,1.746,0,0,1,.674.169,1.927,1.927,0,0,1,.569.413,1.8,1.8,0,0,1,.383.619,1.884,1.884,0,0,1,.122.725,1.856,1.856,0,0,1-.152.687,1.77,1.77,0,0,1-.4.573,1.782,1.782,0,0,1-2,.329,1.943,1.943,0,0,1-.569-.417,1.834,1.834,0,0,1-.388-.624Zm2.507-.944a.87.87,0,0,0-.459-.5.808.808,0,0,0-.67-.025.829.829,0,0,0-.489.463.871.871,0,0,0-.012.682.885.885,0,0,0,.463.514.808.808,0,0,0,.67.025.828.828,0,0,0,.489-.463.874.874,0,0,0,.009-.691Z" transform="translate(-11946.426 -15106.179)" fill="#003f62"/>
    <path id="Trazado_1241667" data-name="Trazado 1241667" d="M1967.333,841.157a28.719,28.719,0,0,1-3.712,1.133.878.878,0,0,1-.839-.371c-.7-.839-3.468-7.727-3.059-8.865.114-.316.392-.687,1.651-1.277.691-.32,3.687-1.542,4.664-1.18,1.117.417,3.063,5.97,3.413,7.293.312,1.184.312,1.757,0,2.128a6.176,6.176,0,0,1-2.128,1.142Zm-3.607-.32a23.506,23.506,0,0,0,4.559-1.652,27.049,27.049,0,0,0-2.8-7.264,13.366,13.366,0,0,0-4.42,1.622,35.816,35.816,0,0,0,2.654,7.293Zm-.329.072Zm2.208-8.983ZM1961,833.62Zm4.42-1.782Zm-4.348,1.58" transform="translate(-11956.378 -14986.328)" fill="#003f62"/>
  </g>
</svg>
