<svg xmlns="http://www.w3.org/2000/svg" xmlns:xlink="http://www.w3.org/1999/xlink" width="122.951" height="88.302" viewBox="0 0 122.951 88.302">
  <defs>
    <filter id="Trazado_1241676" x="0" y="0" width="122.951" height="88.302" filterUnits="userSpaceOnUse">
      <feOffset dy="3" input="SourceAlpha"/>
      <feGaussianBlur stdDeviation="3" result="blur"/>
      <feFlood flood-opacity="0.161"/>
      <feComposite operator="in" in2="blur"/>
      <feComposite in="SourceGraphic"/>
    </filter>
  </defs>
  <g id="Grupo_1200749" data-name="Grupo 1200749" transform="translate(9807.626 14390.527)">
    <g id="Grupo_1200526" data-name="Grupo 1200526" transform="translate(-9798.626 -14384.527)">
      <g transform="matrix(1, 0, 0, 1, -9, -6)" filter="url(#Trazado_1241676)">
        <path id="Trazado_1241676-2" data-name="Trazado 1241676" d="M2312.912,392.15c17.064,3.221,89.809,29.122,93.417,28.042-2.644,8.492-11.226,38.547-13.17,42.261-4.127-2.723-89.391-30.341-91.547-29.308s11.3-40.995,11.3-40.995Z" transform="translate(-2292.38 -386.15)" fill="#003f62"/>
      </g>
      <path id="Trazado_1241677" data-name="Trazado 1241677" d="M2397.42,461.741c-2.893-1.912-49.985-17.382-71.76-23.75.186-.466.355-.938.509-1.425,2.395-7.677-.45-15.4-6.347-17.229a8.783,8.783,0,0,0-1.2-.281c2.93-9.933,6.389-20.746,6.389-20.746,11.443,2.162,50.653,15.629,71.362,22-1.616,7.163,1.224,14.029,6.744,15.751a8.743,8.743,0,0,0,2.347.392c-3.115,10.5-6.887,23.083-8.042,25.3Z" transform="translate(-2309.486 -395.046)" fill="#a2e2eb"/>
      <circle id="Elipse_12363" data-name="Elipse 12363" cx="13.875" cy="13.875" r="13.875" transform="translate(34.338 43.293) rotate(-70.86)" fill="#fff"/>
      <path id="Trazado_1241678" data-name="Trazado 1241678" d="M2397.4,453c.938-3-1.362-4.625-3.6-5.971l1.4-4.493a9.315,9.315,0,0,1,3.057,2.236l1.605-1.955a9.925,9.925,0,0,0-3.91-2.691l.9-2.9-2.453-.763-.927,2.977c-3.3-.509-5.377.911-6.05,3.078-.9,2.893,1.144,4.508,3.279,5.822l-1.4,4.482a8.843,8.843,0,0,1-3.47-2.866l-1.7,1.928a9.79,9.79,0,0,0,4.413,3.359l-.911,2.919,2.453.763.917-2.935C2394.5,456.655,2396.712,455.224,2397.4,453Zm-7.073-9.722a2.1,2.1,0,0,1,2.379-1.372l-1.16,3.719c-.937-.689-1.51-1.415-1.224-2.347Zm1.436,10.288,1.2-3.841c1.118.763,1.86,1.547,1.536,2.591C2394.211,453.238,2393.332,453.773,2391.764,453.571Z" transform="translate(-2340.294 -412.99)" fill="#005f5f"/>
    </g>
    <g id="Grupo_1200527" data-name="Grupo 1200527" transform="translate(-9768.354 -14358.408)">
      <path id="Trazado_1241679" data-name="Trazado 1241679" d="M2435.508,467.274a2.669,2.669,0,1,1-1.754-3.343A2.667,2.667,0,0,1,2435.508,467.274Z" transform="translate(-2392.266 -451.963)" fill="#005f5f"/>
      <path id="Trazado_1241680" data-name="Trazado 1241680" d="M2363.738,444.914a2.669,2.669,0,1,1-1.754-3.343A2.667,2.667,0,0,1,2363.738,444.914Z" transform="translate(-2358.52 -441.449)" fill="#005f5f"/>
    </g>
  </g>
</svg>
