<svg xmlns="http://www.w3.org/2000/svg" width="93" height="93" viewBox="0 0 93 93">
  <g id="Grupo_1111940" data-name="Grupo 1111940" transform="translate(-492 -2364)">
    <g id="Grupo_1111908" data-name="Grupo 1111908" transform="translate(8.949 568)">
      <circle id="Elipse_13237" data-name="Elipse 13237" cx="46.5" cy="46.5" r="46.5" transform="translate(483.051 1796)" fill="#fff"/>
    </g>
    <g id="productivity" transform="translate(496.075 2380)">
      <g id="Grupo_1111935" data-name="Grupo 1111935" transform="translate(14.805 0.88)">
        <g id="Grupo_1111934" data-name="Grupo 1111934" transform="translate(0)">
          <g id="Grupo_1111933" data-name="Grupo 1111933">
            <path id="Trazado_902321" data-name="Trazado 902321" d="M28.464,213.45H22.012a.587.587,0,0,1-.587-.587V182.2a1.173,1.173,0,0,1,1.173-1.173H27.29a1.173,1.173,0,0,1,1.173,1.173V213.45Z" transform="translate(-21.425 -160.66)" fill="#d9b1ee"/>
            <path id="Trazado_902322" data-name="Trazado 902322" d="M245.582,230.161a.948.948,0,0,1,.28-.675l1.11-1.11v-2.235a1.18,1.18,0,0,0-.961-.492h-1.739a.955.955,0,0,1-.954-.954v-3.537a.955.955,0,0,1,.954-.954h1.739a1.18,1.18,0,0,0,.961-.492v-2.235l-1.11-1.11a.954.954,0,0,1,0-1.349l1.11-1.11V201.475A1.173,1.173,0,0,0,245.8,200.3h-4.692a1.173,1.173,0,0,0-1.173,1.173v28.992h5.7A.957.957,0,0,1,245.582,230.161Z" transform="translate(-214.292 -177.678)" fill="#fedf30"/>
            <g id="Grupo_1111927" data-name="Grupo 1111927" transform="translate(25.641 22.624)">
              <path id="Trazado_902323" data-name="Trazado 902323" d="M245.582,416.56a.948.948,0,0,1,.28-.675l1.11-1.11V412.54a1.18,1.18,0,0,0-.961-.492h-1.739a.955.955,0,0,1-.871-.566v.321a.9.9,0,0,1-.9.9h-2.571v4.166h5.7A.955.955,0,0,1,245.582,416.56Z" transform="translate(-239.933 -386.701)" fill="#fed402"/>
              <path id="Trazado_902324" data-name="Trazado 902324" d="M270.362,220.2H272.1a1.18,1.18,0,0,0,.961-.492v-2.235l-1.11-1.11a.954.954,0,0,1,0-1.349l1.11-1.11V201.475a1.173,1.173,0,0,0-1.173-1.173h-2.4V220.77A.955.955,0,0,1,270.362,220.2Z" transform="translate(-266.023 -200.302)" fill="#fed402"/>
            </g>
            <path id="Trazado_902325" data-name="Trazado 902325" d="M322.241,50.811h2.079a.587.587,0,0,1,.587.587V73.43l.021-.009a1.188,1.188,0,0,0,.775-1.114V70.569a.955.955,0,0,1,.954-.954h3.538a.955.955,0,0,1,.954.954v1.739a1.188,1.188,0,0,0,.775,1.114l.021.009V51.4a.587.587,0,0,1,.587-.587h2.079a.561.561,0,0,0,.452-.894l-6.185-8.4a.561.561,0,0,0-.9,0l-6.185,8.4A.561.561,0,0,0,322.241,50.811Z" transform="translate(-286.446 -37.321)" fill="#86e8d0"/>
            <path id="Trazado_902326" data-name="Trazado 902326" d="M380.566,141.741a.955.955,0,0,1,.954.954v1.739a1.188,1.188,0,0,0,.775,1.114l.021.009V123.523a.585.585,0,0,1,.327-.523h-2.137a1.76,1.76,0,0,0-1.76,1.76v16.981Z" transform="translate(-336.816 -109.447)" fill="#5de1c4"/>
            <g id="Grupo_1111929" data-name="Grupo 1111929" transform="translate(6.284)">
              <g id="Grupo_1111928" data-name="Grupo 1111928">
                <circle id="Elipse_13242" data-name="Elipse 13242" cx="10.055" cy="10.055" r="10.055" fill="#eaf6ff"/>
                <path id="Trazado_902327" data-name="Trazado 902327" d="M130.014,7.66a10.055,10.055,0,0,1-4.154,19.212c-.2,0-.4-.007-.592-.019A10.054,10.054,0,1,0,130.014,7.66Z" transform="translate(-119.367 -7.641)" fill="#d8ecfe"/>
                <path id="Trazado_902328" data-name="Trazado 902328" d="M105.324,139.13H88.352a10.052,10.052,0,0,0,16.972,0Z" transform="translate(-86.783 -123.684)" fill="#86e8d0"/>
              </g>
              <circle id="Elipse_13243" data-name="Elipse 13243" cx="5.391" cy="5.391" r="5.391" transform="translate(4.664 4.664)" fill="#ffdfcf"/>
            </g>
            <path id="Trazado_902329" data-name="Trazado 902329" d="M137.718,284.357h-7.039V262.529a1.173,1.173,0,0,1,1.173-1.173h4.692a1.173,1.173,0,0,1,1.173,1.173Z" transform="translate(-117.859 -231.567)" fill="#fdb97e"/>
            <g id="Grupo_1111932" data-name="Grupo 1111932" transform="translate(28.909 32.177)">
              <g id="Grupo_1111930" data-name="Grupo 1111930">
                <path id="Trazado_902330" data-name="Trazado 902330" d="M293.926,296.548V293.01a1.071,1.071,0,0,0-1.071-1.072h-1.739a1.078,1.078,0,0,1-1-.7q-.1-.255-.208-.5a1.079,1.079,0,0,1,.215-1.206l1.229-1.229a1.071,1.071,0,0,0,0-1.515l-2.5-2.5a1.071,1.071,0,0,0-1.515,0l-1.229,1.229a1.079,1.079,0,0,1-1.206.215q-.248-.111-.5-.208a1.078,1.078,0,0,1-.7-1v-1.739a1.071,1.071,0,0,0-1.071-1.071h-3.538a1.071,1.071,0,0,0-1.071,1.071v1.739a1.078,1.078,0,0,1-.7,1q-.255.1-.5.208a1.079,1.079,0,0,1-1.206-.215l-1.229-1.229a1.071,1.071,0,0,0-1.515,0l-2.5,2.5a1.071,1.071,0,0,0,0,1.515l1.229,1.229a1.079,1.079,0,0,1,.215,1.206q-.111.248-.208.5a1.078,1.078,0,0,1-1,.7h-1.739a1.071,1.071,0,0,0-1.071,1.072v3.538a1.071,1.071,0,0,0,1.071,1.071h1.739a1.078,1.078,0,0,1,1,.7q.1.255.208.5a1.079,1.079,0,0,1-.215,1.206l-1.229,1.229a1.071,1.071,0,0,0,0,1.515l2.5,2.5a1.071,1.071,0,0,0,1.515,0l1.229-1.229a1.079,1.079,0,0,1,1.206-.215q.247.111.5.208a1.078,1.078,0,0,1,.7,1v1.739a1.071,1.071,0,0,0,1.071,1.071h3.538a1.071,1.071,0,0,0,1.071-1.071V305.04a1.078,1.078,0,0,1,.7-1q.255-.1.5-.208a1.079,1.079,0,0,1,1.206.215l1.229,1.229a1.071,1.071,0,0,0,1.515,0l2.5-2.5a1.071,1.071,0,0,0,0-1.515l-1.229-1.229a1.079,1.079,0,0,1-.215-1.206q.111-.247.208-.5a1.078,1.078,0,0,1,1-.7h1.739A1.072,1.072,0,0,0,293.926,296.548Z" transform="translate(-267.782 -281.707)" fill="#a79ba7"/>
                <path id="Trazado_902331" data-name="Trazado 902331" d="M336.131,342.225H332.41a1.479,1.479,0,0,0-1.046.433l-2.631,2.631a1.479,1.479,0,0,0-.433,1.046v3.721a1.479,1.479,0,0,0,.433,1.046l2.631,2.631a1.479,1.479,0,0,0,1.046.433h3.721a1.479,1.479,0,0,0,1.046-.433l2.631-2.631a1.479,1.479,0,0,0,.433-1.046v-3.721a1.479,1.479,0,0,0-.433-1.046l-2.631-2.631A1.479,1.479,0,0,0,336.131,342.225Z" transform="translate(-321.199 -335.124)" fill="#7a6d79"/>
                <circle id="Elipse_13244" data-name="Elipse 13244" cx="2.588" cy="2.588" r="2.588" transform="translate(10.484 10.484)" fill="#685e68"/>
                <path id="Trazado_902332" data-name="Trazado 902332" d="M362.068,373.253a2.583,2.583,0,0,1-3.545,3.229,2.586,2.586,0,1,0,3.545-3.229Z" transform="translate(-347.875 -362.511)" fill="#554e56"/>
              </g>
              <path id="Trazado_902333" data-name="Trazado 902333" d="M355.868,350.934l-2.314-2.314a6.8,6.8,0,0,1-6.061,9.9,6.857,6.857,0,0,1-1-.073l.929.929a1.479,1.479,0,0,0,1.046.433h3.721a1.479,1.479,0,0,0,1.046-.433l2.631-2.631a1.479,1.479,0,0,0,.433-1.046V351.98A1.479,1.479,0,0,0,355.868,350.934Z" transform="translate(-337.259 -340.768)" fill="#7a6d79"/>
              <g id="Grupo_1111931" data-name="Grupo 1111931" transform="translate(9.888 2.264)">
                <path id="Trazado_902334" data-name="Trazado 902334" d="M367.233,308.968h-1.739a1.078,1.078,0,0,1-1-.7q-.1-.255-.208-.5a1.079,1.079,0,0,1,.215-1.206l1.229-1.229a1.071,1.071,0,0,0,0-1.515l-2.5-2.5a1.071,1.071,0,0,0-1.515,0l-1.158,1.158a11.713,11.713,0,0,1-8.5,18.818,1.065,1.065,0,0,1,.343.779v1.739a1.071,1.071,0,0,0,1.071,1.071H357a1.071,1.071,0,0,0,1.071-1.071V322.07a1.078,1.078,0,0,1,.7-1q.255-.1.5-.208a1.079,1.079,0,0,1,1.206.215l1.229,1.229a1.071,1.071,0,0,0,1.515,0l2.5-2.5a1.071,1.071,0,0,0,0-1.515l-1.229-1.229a1.079,1.079,0,0,1-.215-1.206q.111-.247.208-.5a1.078,1.078,0,0,1,1-.7h1.739a1.071,1.071,0,0,0,1.071-1.071V310.04A1.072,1.072,0,0,0,367.233,308.968Z" transform="translate(-352.049 -301.001)" fill="#918291"/>
              </g>
            </g>
            <path id="Trazado_902335" data-name="Trazado 902335" d="M133.7,139.13a10.034,10.034,0,0,1-7.857,3.784c-.2,0-.4-.008-.595-.019a10.054,10.054,0,0,0,12.643-3.765Z" transform="translate(-113.061 -123.684)" fill="#5de1c4"/>
            <path id="Trazado_902336" data-name="Trazado 902336" d="M27.29,181.022h-2.4v27.365a.9.9,0,0,1-.9.9H21.425v3.579a.587.587,0,0,0,.587.587h6.452V182.2A1.174,1.174,0,0,0,27.29,181.022Z" transform="translate(-21.425 -160.66)" fill="#cb97e7"/>
            <path id="Trazado_902337" data-name="Trazado 902337" d="M138.127,47.25a5.459,5.459,0,0,0-.566.03,5.391,5.391,0,0,1-2.431,9.842,5.391,5.391,0,1,0,3-9.872Z" transform="translate(-121.787 -42.586)" fill="#ffcebf"/>
            <path id="Trazado_902338" data-name="Trazado 902338" d="M136.544,261.356h-2.4v17.938a.9.9,0,0,1-.9.9h-2.571v4.166h7.039V262.529A1.173,1.173,0,0,0,136.544,261.356Z" transform="translate(-117.859 -231.567)" fill="#fea95c"/>
          </g>
        </g>
      </g>
      <g id="Grupo_1111937" data-name="Grupo 1111937" transform="translate(13.925 0)">
        <g id="Grupo_1111936" data-name="Grupo 1111936" transform="translate(0 0)">
          <path id="Línea_324" data-name="Línea 324" d="M19.021-5.74H-6.62a.88.88,0,0,1-.88-.88.88.88,0,0,1,.88-.88H19.021a.88.88,0,0,1,.88.88A.88.88,0,0,1,19.021-5.74Z" transform="translate(7.5 60.29)"/>
          <path id="Línea_325" data-name="Línea 325" d="M-6.62.168a.88.88,0,0,1-.88-.88V-6.62a.88.88,0,0,1,.88-.88.88.88,0,0,1,.88.88V-.712A.88.88,0,0,1-6.62.168Z" transform="translate(23.84 27.61)"/>
          <path id="Trazado_902339" data-name="Trazado 902339" d="M78.416,21.871a10.934,10.934,0,0,1-9.44-16.454.88.88,0,0,1,1.519.89,9.181,9.181,0,1,0,2.518-2.785A.88.88,0,0,1,71.975,2.1a10.935,10.935,0,1,1,6.441,19.77Z" transform="translate(-61.196 0)"/>
          <path id="Elipse_13245" data-name="Elipse 13245" d="M-1.229-7.5A6.278,6.278,0,0,1,5.042-1.229,6.278,6.278,0,0,1-1.229,5.042,6.278,6.278,0,0,1-7.5-1.229,6.278,6.278,0,0,1-1.229-7.5Zm0,10.782A4.516,4.516,0,0,0,3.282-1.229,4.516,4.516,0,0,0-1.229-5.74,4.516,4.516,0,0,0-5.74-1.229,4.516,4.516,0,0,0-1.229,3.282Z" transform="translate(18.449 12.164)"/>
          <path id="Trazado_902340" data-name="Trazado 902340" d="M325.324,67.562a.88.88,0,0,1-.88-.88v-21.9a1.468,1.468,0,0,1,1.467-1.467h1.448L321.8,35.764l-5.554,7.546H317.7a1.468,1.468,0,0,1,1.467,1.467v5.93a.88.88,0,1,1-1.76,0V45.071H315.62a1.441,1.441,0,0,1-1.161-2.3l6.185-8.4a1.441,1.441,0,0,1,2.321,0l6.185,8.4a1.441,1.441,0,0,1-1.161,2.3H326.2V66.682A.88.88,0,0,1,325.324,67.562Z" transform="translate(-278.944 -29.821)"/>
          <path id="Línea_326" data-name="Línea 326" d="M-6.62,6.128a.88.88,0,0,1-.88-.88V-6.62a.88.88,0,0,1,.88-.88.88.88,0,0,1,.88.88V5.247A.88.88,0,0,1-6.62,6.128Z" transform="translate(45.961 31.614)"/>
          <path id="Trazado_902341" data-name="Trazado 902341" d="M276,302.111h-3.538a1.954,1.954,0,0,1-1.952-1.952v-1.739a.2.2,0,0,0-.134-.183q-.277-.106-.547-.227c-.127-.02-.18-.01-.224.034l-1.229,1.229a1.952,1.952,0,0,1-2.76,0l-2.5-2.5a1.954,1.954,0,0,1,0-2.76l1.229-1.229a.2.2,0,0,0,.034-.224q-.12-.27-.227-.547a.2.2,0,0,0-.183-.134h-1.739a1.954,1.954,0,0,1-1.952-1.952V286.39a1.954,1.954,0,0,1,1.952-1.952h1.739a.2.2,0,0,0,.183-.134q.106-.277.227-.547a.2.2,0,0,0-.034-.224l-1.229-1.229a1.951,1.951,0,0,1,0-2.76l2.5-2.5a1.952,1.952,0,0,1,2.76,0l1.229,1.229a.186.186,0,0,0,.134.054c.27-.1.452-.176.637-.246a.2.2,0,0,0,.134-.183v-1.739a1.954,1.954,0,0,1,1.952-1.952H276a1.954,1.954,0,0,1,1.952,1.952V277.9a.2.2,0,0,0,.134.183q.277.106.547.227c.127.02.18.01.224-.034l1.229-1.229a1.952,1.952,0,0,1,2.76,0l2.5,2.5a1.954,1.954,0,0,1,0,2.76l-1.229,1.229a.2.2,0,0,0-.034.224q.121.27.227.547a.2.2,0,0,0,.183.134h1.739a1.954,1.954,0,0,1,1.952,1.952v3.538a1.954,1.954,0,0,1-1.951,1.952H284.5a.2.2,0,0,0-.183.134q-.106.277-.227.547a.2.2,0,0,0,.034.224l1.229,1.229a1.951,1.951,0,0,1,0,2.76l-2.5,2.5a1.952,1.952,0,0,1-2.76,0l-1.229-1.229a.186.186,0,0,0-.134-.054c-.27.1-.452.176-.637.246a.2.2,0,0,0-.134.183v1.739A1.954,1.954,0,0,1,276,302.111Zm-6.26-5.879a1.97,1.97,0,0,1,.808.173q.226.1.457.189a1.946,1.946,0,0,1,1.266,1.827v1.739a.192.192,0,0,0,.191.191H276a.192.192,0,0,0,.191-.191v-1.739a1.946,1.946,0,0,1,1.265-1.827q.232-.089.457-.189a1.969,1.969,0,0,1,.808-.173,1.937,1.937,0,0,1,1.379.569l1.23,1.23a.191.191,0,0,0,.271,0l2.5-2.5a.215.215,0,0,0,0-.271l-1.229-1.229a1.947,1.947,0,0,1-.4-2.187q.1-.226.189-.457a1.946,1.946,0,0,1,1.827-1.266h1.739a.192.192,0,0,0,.191-.191V286.39a.192.192,0,0,0-.191-.191H284.5a1.946,1.946,0,0,1-1.827-1.265q-.089-.232-.189-.457a1.946,1.946,0,0,1,.4-2.187l1.23-1.23a.192.192,0,0,0,0-.271l-2.5-2.5a.191.191,0,0,0-.271,0l-1.229,1.229a1.936,1.936,0,0,1-1.379.569,1.969,1.969,0,0,1-.808-.173q-.226-.1-.457-.189a1.946,1.946,0,0,1-1.266-1.827v-1.739a.192.192,0,0,0-.191-.191h-3.538a.192.192,0,0,0-.191.191V277.9a1.946,1.946,0,0,1-1.265,1.827q-.232.089-.457.189a1.968,1.968,0,0,1-.808.173,1.937,1.937,0,0,1-1.379-.569l-1.23-1.23a.191.191,0,0,0-.271,0l-2.5,2.5a.215.215,0,0,0,0,.271l1.229,1.229a1.947,1.947,0,0,1,.4,2.187q-.1.226-.189.457a1.946,1.946,0,0,1-1.827,1.266h-1.739a.192.192,0,0,0-.191.191v3.538a.192.192,0,0,0,.191.191h1.739a1.946,1.946,0,0,1,1.827,1.265q.089.232.189.457a1.947,1.947,0,0,1-.4,2.187l-1.23,1.23a.192.192,0,0,0,0,.271l2.5,2.5a.191.191,0,0,0,.271,0l1.229-1.229A1.936,1.936,0,0,1,269.742,296.232Z" transform="translate(-231.373 -242.03)"/>
          <path id="Trazado_902342" data-name="Trazado 902342" d="M325.79,334.725h3.721a2.344,2.344,0,0,1,1.668.691l2.631,2.631a2.344,2.344,0,0,1,.691,1.668v3.721a2.344,2.344,0,0,1-.691,1.668l-2.631,2.631a2.344,2.344,0,0,1-1.668.691H325.79a2.344,2.344,0,0,1-1.668-.691l-2.631-2.631a2.344,2.344,0,0,1-.691-1.668v-3.721a2.344,2.344,0,0,1,.691-1.668l2.631-2.631A2.344,2.344,0,0,1,325.79,334.725Zm3.721,11.941a.6.6,0,0,0,.424-.175l2.631-2.631a.6.6,0,0,0,.175-.424v-3.721a.6.6,0,0,0-.175-.424l-2.631-2.631a.6.6,0,0,0-.424-.175H325.79a.6.6,0,0,0-.424.175l-2.631,2.631a.6.6,0,0,0-.175.424v3.721a.6.6,0,0,0,.175.424l2.631,2.631a.6.6,0,0,0,.424.175Z" transform="translate(-284.79 -295.447)"/>
          <path id="Elipse_13246" data-name="Elipse 13246" d="M-4.032-7.5A3.472,3.472,0,0,1-.564-4.032,3.472,3.472,0,0,1-4.032-.564,3.472,3.472,0,0,1-7.5-4.032,3.472,3.472,0,0,1-4.032-7.5Zm0,5.175A1.71,1.71,0,0,0-2.325-4.032,1.71,1.71,0,0,0-4.032-5.74,1.71,1.71,0,0,0-5.74-4.032,1.71,1.71,0,0,0-4.032-2.325Z" transform="translate(46.893 50.161)"/>
          <path id="Trazado_902343" data-name="Trazado 902343" d="M238.89,224.728h-5.577a.88.88,0,0,1-.88-.88V194.856a2.056,2.056,0,0,1,2.054-2.054h4.692a2.056,2.056,0,0,1,2.054,2.054v12.266h-1.76V194.856a.294.294,0,0,0-.293-.293h-4.692a.294.294,0,0,0-.293.293v28.112h4.7Z" transform="translate(-206.792 -170.178)"/>
          <path id="Trazado_902344" data-name="Trazado 902344" d="M21.844,207.71H15.392a1.468,1.468,0,0,1-1.467-1.467V175.576a2.056,2.056,0,0,1,2.054-2.054H20.67a2.056,2.056,0,0,1,2.054,2.054V206.83A.88.88,0,0,1,21.844,207.71Zm-6.159-1.76h5.279V175.576a.294.294,0,0,0-.293-.293H15.979a.294.294,0,0,0-.293.293Z" transform="translate(-13.925 -153.16)"/>
          <path id="Trazado_902345" data-name="Trazado 902345" d="M131.1,278.617h-7.039a.88.88,0,0,1-.88-.88v-9.079a.88.88,0,1,1,1.76,0v8.2h5.279V255.91a.294.294,0,0,0-.293-.293h-4.692a.294.294,0,0,0-.293.293v8.642a.88.88,0,1,1-1.76,0V255.91a2.056,2.056,0,0,1,2.054-2.054h4.692a2.056,2.056,0,0,1,2.054,2.054v21.828A.88.88,0,0,1,131.1,278.617Z" transform="translate(-110.359 -224.067)"/>
        </g>
        <path id="Línea_327" data-name="Línea 327" d="M16.972-5.74H0V-7.5H16.972Z" transform="translate(8.734 22.946)"/>
      </g>
    </g>
  </g>
</svg>
