<svg xmlns="http://www.w3.org/2000/svg" width="93" height="93" viewBox="0 0 93 93">
  <g id="Grupo_1111941" data-name="Grupo 1111941" transform="translate(-1017 -2364)">
    <g id="Grupo_1111907" data-name="Grupo 1111907" transform="translate(-15.051 568)">
      <circle id="Elipse_13241" data-name="Elipse 13241" cx="46.5" cy="46.5" r="46.5" transform="translate(1032.051 1796)" fill="#fff"/>
    </g>
    <g id="pie-chart" transform="translate(1033 2379.551)">
      <g id="Grupo_1111938" data-name="Grupo 1111938" transform="translate(0.908 1.357)">
        <path id="Trazado_902339" data-name="Trazado 902339" d="M60.039,49.533A20.792,20.792,0,1,0,39.247,28.74H60.039Z" transform="translate(-35.403 -7.948)" fill="#9dc6fb"/>
        <path id="Trazado_902340" data-name="Trazado 902340" d="M218.93,411.066h-6.015a1.844,1.844,0,0,0-1.844,1.844v9.416h9.7V412.91A1.844,1.844,0,0,0,218.93,411.066Z" transform="translate(-186.421 -362.251)" fill="#9dc6fb"/>
        <path id="Trazado_902341" data-name="Trazado 902341" d="M215.987,411.071a1.842,1.842,0,0,0-1.843,1.843v9.416h-3.073v-9.416a1.843,1.843,0,0,1,1.843-1.843Z" transform="translate(-186.42 -362.255)" fill="#80b4fb"/>
        <path id="Trazado_902342" data-name="Trazado 902342" d="M325.585,215.1h-6.015a1.844,1.844,0,0,0-1.844,1.844v33.147h9.7V216.941A1.844,1.844,0,0,0,325.585,215.1Z" transform="translate(-280.16 -190.013)" fill="#f6e266"/>
        <path id="Trazado_902343" data-name="Trazado 902343" d="M322.646,215.1a1.843,1.843,0,0,0-1.843,1.843V250.09h-3.072V216.943a1.842,1.842,0,0,1,1.843-1.843Z" transform="translate(-280.164 -190.015)" fill="#ffc250"/>
        <path id="Trazado_902344" data-name="Trazado 902344" d="M432.241,328.609h-6.015a1.844,1.844,0,0,0-1.844,1.844v19.4h9.7v-19.4A1.843,1.843,0,0,0,432.241,328.609Z" transform="translate(-373.901 -289.779)" fill="#dd636e"/>
        <path id="Trazado_902345" data-name="Trazado 902345" d="M429.3,328.61a1.842,1.842,0,0,0-1.843,1.843v19.4h-3.073v-19.4a1.843,1.843,0,0,1,1.844-1.843H429.3Z" transform="translate(-373.9 -289.78)" fill="#cb5769"/>
        <path id="Trazado_902346" data-name="Trazado 902346" d="M28.292,232.188V211.4H7.5A20.792,20.792,0,0,0,28.292,232.188Z" transform="translate(-7.5 -186.759)" fill="#dd636e"/>
      </g>
      <g id="Grupo_1111939" data-name="Grupo 1111939" transform="translate(0 0.449)">
        <path id="Trazado_902347" data-name="Trazado 902347" d="M212.337,403.566h-6.015a2.755,2.755,0,0,0-2.752,2.752v9.416a.908.908,0,0,0,.908.908h9.7a.908.908,0,0,0,.908-.908v-9.416A2.755,2.755,0,0,0,212.337,403.566Zm.935,11.26h-7.885v-8.508a.936.936,0,0,1,.935-.935h6.015a.936.936,0,0,1,.935.935v8.508Z" transform="translate(-178.92 -354.751)"/>
        <path id="Trazado_902348" data-name="Trazado 902348" d="M74.874,25.609a21.868,21.868,0,0,0,.276-3.46A21.577,21.577,0,0,0,71.238,9.735l1.483-2.643H85.005a.908.908,0,1,0,0-1.816H72.189a.908.908,0,0,0-.792.464L70.033,8.17A21.682,21.682,0,0,0,39.015,5.947.908.908,0,1,0,40.224,7.3,19.871,19.871,0,0,1,69.079,9.871L65.37,16.48a.908.908,0,1,0,1.584.889l3.287-5.858a19.765,19.765,0,0,1,3.092,10.638,20.036,20.036,0,0,1-.289,3.385H68.223a2.754,2.754,0,0,0-2.751,2.751v9.7a19.63,19.63,0,0,1-11.114,4.026V22.149a.908.908,0,0,0-.908-.908H33.586A19.644,19.644,0,0,1,37.863,9.8a.908.908,0,1,0-1.423-1.129A21.468,21.468,0,0,0,31.75,22.149a.908.908,0,0,0,.908.908H52.542V42.942a.908.908,0,0,0,.908.908A21.446,21.446,0,0,0,65.472,40.22V61.432a.908.908,0,0,0,.908.908h9.7a.908.908,0,0,0,.908-.908V54.613a.908.908,0,1,0-1.816,0v5.911H67.289V28.285a.936.936,0,0,1,.935-.935h6.015a.936.936,0,0,1,.935.935v22.7a.908.908,0,0,0,1.816,0v-22.7a2.755,2.755,0,0,0-2.115-2.676Z" transform="translate(-27.905 -0.449)"/>
        <path id="Trazado_902349" data-name="Trazado 902349" d="M425.648,321.109h-6.015a2.755,2.755,0,0,0-2.752,2.752v19.4a.908.908,0,0,0,.908.908h9.7a.908.908,0,0,0,.908-.908v-19.4A2.755,2.755,0,0,0,425.648,321.109Zm.935,21.245H418.7V323.861a.936.936,0,0,1,.935-.935h6.015a.936.936,0,0,1,.935.935v18.493Z" transform="translate(-366.4 -282.279)"/>
        <path id="Trazado_902350" data-name="Trazado 902350" d="M21.7,203.894H.908A.908.908,0,0,0,0,204.8a21.738,21.738,0,0,0,14.427,20.446l-2.513,5.45H2.143a.908.908,0,0,0,0,1.816H12.495a.908.908,0,0,0,.825-.528l2.858-6.2a21.655,21.655,0,0,0,5.523.713.908.908,0,0,0,.908-.908V204.8a.908.908,0,0,0-.908-.908Zm-.908,20.773a19.808,19.808,0,0,1-3.841-.554l1.107-2.4a.908.908,0,0,0-1.649-.761l-1.217,2.64A19.927,19.927,0,0,1,1.837,205.71H20.792Z" transform="translate(0 -179.258)"/>
        <path id="Trazado_902351" data-name="Trazado 902351" d="M11.1,394.77h7.545a.908.908,0,1,0,0-1.816H11.1a.908.908,0,1,0,0,1.816Z" transform="translate(-8.96 -345.424)"/>
        <path id="Trazado_902352" data-name="Trazado 902352" d="M391.054,12.264H400a.908.908,0,0,0,0-1.816h-8.948a.908.908,0,0,0,0,1.816Z" transform="translate(-342.902 -9.237)"/>
        <path id="Trazado_902353" data-name="Trazado 902353" d="M427.51,169.856a.908.908,0,0,0,.908.908h6.6a.908.908,0,0,0,0-1.816h-6.6A.908.908,0,0,0,427.51,169.856Z" transform="translate(-375.741 -148.544)"/>
        <path id="Trazado_902354" data-name="Trazado 902354" d="M435.017,201.271h-6.6a.908.908,0,0,0,0,1.816h6.6a.908.908,0,0,0,0-1.816Z" transform="translate(-375.741 -176.953)"/>
        <path id="Trazado_902355" data-name="Trazado 902355" d="M435.017,233.594h-6.6a.908.908,0,0,0,0,1.816h6.6a.908.908,0,0,0,0-1.816Z" transform="translate(-375.741 -205.362)"/>
      </g>
    </g>
  </g>
</svg>
